<svg width="40" height="42" viewBox="0 0 40 42" fill="none" xmlns="http://www.w3.org/2000/svg">
<path d="M20 20.9999C17.25 20.9999 14.8958 19.9881 12.9375 17.9645C10.9792 15.9409 10 13.5083 10 10.6666C10 7.82492 10.9792 5.39228 12.9375 3.36867C14.8958 1.34506 17.25 0.333252 20 0.333252C22.75 0.333252 25.1042 1.34506 27.0625 3.36867C29.0208 5.39228 30 7.82492 30 10.6666C30 13.5083 29.0208 15.9409 27.0625 17.9645C25.1042 19.9881 22.75 20.9999 20 20.9999ZM0 41.6666V34.4333C0 32.9694 0.364583 31.6239 1.09375 30.3968C1.82292 29.1697 2.79167 28.2333 4 27.5874C6.58333 26.2527 9.20833 25.2517 11.875 24.5843C14.5417 23.9169 17.25 23.5833 20 23.5833C22.75 23.5833 25.4583 23.9169 28.125 24.5843C30.7917 25.2517 33.4167 26.2527 36 27.5874C37.2083 28.2333 38.1771 29.1697 38.9062 30.3968C39.6354 31.6239 40 32.9694 40 34.4333V41.6666H0ZM5 36.4999H35V34.4333C35 33.9596 34.8854 33.5291 34.6562 33.1416C34.4271 32.7541 34.125 32.4527 33.75 32.2374C31.5 31.0749 29.2292 30.203 26.9375 29.6218C24.6458 29.0405 22.3333 28.7499 20 28.7499C17.6667 28.7499 15.3542 29.0405 13.0625 29.6218C10.7708 30.203 8.5 31.0749 6.25 32.2374C5.875 32.4527 5.57292 32.7541 5.34375 33.1416C5.11458 33.5291 5 33.9596 5 34.4333V36.4999ZM20 15.8333C21.375 15.8333 22.5521 15.3273 23.5312 14.3155C24.5104 13.3037 25 12.0874 25 10.6666C25 9.24575 24.5104 8.02943 23.5312 7.01763C22.5521 6.00582 21.375 5.49992 20 5.49992C18.625 5.49992 17.4479 6.00582 16.4688 7.01763C15.4896 8.02943 15 9.24575 15 10.6666C15 12.0874 15.4896 13.3037 16.4688 14.3155C17.4479 15.3273 18.625 15.8333 20 15.8333Z" fill="white"/>
</svg>
