<svg width="48" height="46" viewBox="0 0 48 46" fill="none" xmlns="http://www.w3.org/2000/svg">
<path d="M24 45.5C17.4986 45.5 11.9983 44.5312 7.49896 42.5938C2.99965 40.6562 0.75 38.2917 0.75 35.5V10.5C0.75 7.75 3.02118 5.39583 7.56354 3.4375C12.1059 1.47917 17.5847 0.5 24 0.5C30.4153 0.5 35.8941 1.47917 40.4365 3.4375C44.9788 5.39583 47.25 7.75 47.25 10.5V35.5C47.25 38.2917 45.0003 40.6562 40.501 42.5938C36.0017 44.5312 30.5014 45.5 24 45.5ZM24 15.5625C27.8319 15.5625 31.6854 15.0312 35.5604 13.9688C39.4354 12.9062 41.6097 11.7708 42.0833 10.5625C41.6097 9.35417 39.4462 8.20833 35.5927 7.125C31.7392 6.04167 27.875 5.5 24 5.5C20.0819 5.5 16.2392 6.03125 12.4719 7.09375C8.70451 8.15625 6.51944 9.3125 5.91667 10.5625C6.51944 11.8125 8.70451 12.9583 12.4719 14C16.2392 15.0417 20.0819 15.5625 24 15.5625ZM24 28C25.8083 28 27.5521 27.9167 29.2312 27.75C30.9104 27.5833 32.5142 27.3438 34.0427 27.0312C35.5712 26.7188 37.0135 26.3333 38.3698 25.875C39.726 25.4167 40.9639 24.8958 42.0833 24.3125V16.8125C40.9639 17.3958 39.726 17.9167 38.3698 18.375C37.0135 18.8333 35.5712 19.2188 34.0427 19.5312C32.5142 19.8438 30.9104 20.0833 29.2312 20.25C27.5521 20.4167 25.8083 20.5 24 20.5C22.1917 20.5 20.4264 20.4167 18.7042 20.25C16.9819 20.0833 15.3566 19.8438 13.8281 19.5312C12.2997 19.2188 10.8681 18.8333 9.53333 18.375C8.19861 17.9167 6.99306 17.3958 5.91667 16.8125V24.3125C6.99306 24.8958 8.19861 25.4167 9.53333 25.875C10.8681 26.3333 12.2997 26.7188 13.8281 27.0312C15.3566 27.3438 16.9819 27.5833 18.7042 27.75C20.4264 27.9167 22.1917 28 24 28ZM24 40.5C25.9806 40.5 27.9934 40.3542 30.0385 40.0625C32.0837 39.7708 33.9674 39.3854 35.6896 38.9062C37.4118 38.4271 38.8542 37.8854 40.0167 37.2812C41.1792 36.6771 41.8681 36.0625 42.0833 35.4375V29.3125C40.9639 29.8958 39.726 30.4167 38.3698 30.875C37.0135 31.3333 35.5712 31.7188 34.0427 32.0312C32.5142 32.3438 30.9104 32.5833 29.2312 32.75C27.5521 32.9167 25.8083 33 24 33C22.1917 33 20.4264 32.9167 18.7042 32.75C16.9819 32.5833 15.3566 32.3438 13.8281 32.0312C12.2997 31.7188 10.8681 31.3333 9.53333 30.875C8.19861 30.4167 6.99306 29.8958 5.91667 29.3125V35.5C6.13194 36.125 6.81007 36.7292 7.95104 37.3125C9.09201 37.8958 10.5236 38.4271 12.2458 38.9062C13.9681 39.3854 15.8625 39.7708 17.9292 40.0625C19.9958 40.3542 22.0194 40.5 24 40.5Z" fill="white"/>
</svg>
