<svg width="63" height="59" viewBox="0 0 63 59" fill="none" xmlns="http://www.w3.org/2000/svg">
<path d="M29.1375 59V49.8395H33.8625V59H29.1375ZM0 30.2763L0 25.6184H9.2925V30.2763H0ZM53.7075 30.2763V25.6184H63V30.2763H53.7075ZM51.8962 51.3921L45.4388 45.0263L48.825 41.6882L55.2825 48.0539L51.8962 51.3921ZM11.1038 51.3921L7.7175 48.0539L14.175 41.6882L17.5613 45.0263L11.1038 51.3921ZM31.5 42.0763C27.5625 42.0763 24.1894 40.6919 21.3806 37.923C18.5719 35.1542 17.1675 31.8289 17.1675 27.9474C17.1675 25.4114 17.7188 23.1342 18.8212 21.1158C19.9237 19.0974 21.4725 17.4412 23.4675 16.1474V0L39.5325 0V16.1474C41.5275 17.4412 43.0762 19.0974 44.1787 21.1158C45.2812 23.1342 45.8325 25.4114 45.8325 27.9474C45.8325 31.8289 44.4281 35.1542 41.6194 37.923C38.8106 40.6919 35.4375 42.0763 31.5 42.0763ZM28.1925 14.5171C28.7437 14.3618 29.295 14.2454 29.8463 14.1678C30.3975 14.0901 30.9487 14.0513 31.5 14.0513C32.0513 14.0513 32.6025 14.0901 33.1538 14.1678C33.705 14.2454 34.2562 14.3618 34.8075 14.5171V4.65789H28.1925V14.5171ZM31.5093 37.4184C34.1806 37.4184 36.4481 36.4967 38.3119 34.6533C40.1756 32.81 41.1075 30.5716 41.1075 27.9382C41.1075 25.3048 40.1725 23.0695 38.3026 21.2322C36.4327 19.395 34.1621 18.4763 31.4907 18.4763C28.8194 18.4763 26.5519 19.398 24.6881 21.2414C22.8244 23.0847 21.8925 25.3231 21.8925 27.9565C21.8925 30.5899 22.8275 32.8252 24.6974 34.6625C26.5673 36.4998 28.8379 37.4184 31.5093 37.4184Z" fill="white"/>
</svg>
