<svg width="51" height="59" viewBox="0 0 51 59" fill="none" xmlns="http://www.w3.org/2000/svg">
<path d="M4.78125 59C3.46641 59 2.34082 58.5874 1.40449 57.7621C0.468164 56.9368 0 55.9446 0 54.7857L0 24.3024C0 23.1435 0.468164 22.1513 1.40449 21.326C2.34082 20.5007 3.46641 20.0881 4.78125 20.0881H10.3594V13.3452C10.3594 9.65306 11.8364 6.5058 14.7905 3.90348C17.7445 1.30116 21.3172 0 25.5084 0C29.6997 0 33.2695 1.30116 36.218 3.90348C39.1664 6.5058 40.6406 9.65306 40.6406 13.3452V20.0881H46.2188C47.5336 20.0881 48.6592 20.5007 49.5955 21.326C50.5318 22.1513 51 23.1435 51 24.3024V54.7857C51 55.9446 50.5318 56.9368 49.5955 57.7621C48.6592 58.5874 47.5336 59 46.2188 59H4.78125ZM4.78125 54.7857H46.2188V24.3024H4.78125V54.7857ZM25.5134 44.9524C27.2045 44.9524 28.6477 44.4366 29.843 43.405C31.0383 42.3734 31.6359 41.1332 31.6359 39.6845C31.6359 38.2798 31.0338 37.0038 29.8296 35.8565C28.6253 34.7093 27.1777 34.1357 25.4866 34.1357C23.7955 34.1357 22.3523 34.7093 21.157 35.8565C19.9617 37.0038 19.3641 38.2915 19.3641 39.7196C19.3641 41.1478 19.9662 42.377 21.1704 43.4071C22.3747 44.4373 23.8223 44.9524 25.5134 44.9524ZM15.1406 20.0881H35.8594V13.3452C35.8594 10.8088 34.8531 8.65294 32.8407 6.8775C30.8281 5.10202 28.3844 4.21429 25.5094 4.21429C22.6344 4.21429 20.1875 5.10202 18.1687 6.8775C16.15 8.65294 15.1406 10.8088 15.1406 13.3452V20.0881Z" fill="white"/>
</svg>
