<svg width="36" height="50" viewBox="0 0 36 50" fill="none" xmlns="http://www.w3.org/2000/svg">
<path d="M18 31.1667C15.9167 31.1667 14.1458 30.4133 12.6875 28.9063C11.2292 27.3994 10.5 25.5695 10.5 23.4167V7.91675C10.5 5.76397 11.2292 3.93411 12.6875 2.42716C14.1458 0.92022 15.9167 0.166748 18 0.166748C20.0833 0.166748 21.8542 0.92022 23.3125 2.42716C24.7708 3.93411 25.5 5.76397 25.5 7.91675V23.4167C25.5 25.5695 24.7708 27.3994 23.3125 28.9063C21.8542 30.4133 20.0833 31.1667 18 31.1667ZM15.5 49.2501V41.3063C11.1667 40.7036 7.58333 38.7015 4.75 35.3001C1.91667 31.8987 0.5 27.9376 0.5 23.4167H5.5C5.5 26.9904 6.71875 30.0365 9.15625 32.5553C11.5938 35.074 14.5417 36.3334 18 36.3334C21.4583 36.3334 24.4062 35.074 26.8438 32.5553C29.2812 30.0365 30.5 26.9904 30.5 23.4167H35.5C35.5 27.9376 34.0833 31.8987 31.25 35.3001C28.4167 38.7015 24.8333 40.7036 20.5 41.3063V49.2501H15.5ZM18 26.0001C18.7083 26.0001 19.3021 25.7525 19.7812 25.2574C20.2604 24.7622 20.5 24.1487 20.5 23.4167V7.91675C20.5 7.1848 20.2604 6.57126 19.7812 6.07612C19.3021 5.58098 18.7083 5.33341 18 5.33341C17.2917 5.33341 16.6979 5.58098 16.2188 6.07612C15.7396 6.57126 15.5 7.1848 15.5 7.91675V23.4167C15.5 24.1487 15.7396 24.7622 16.2188 25.2574C16.6979 25.7525 17.2917 26.0001 18 26.0001Z" fill="white"/>
</svg>
