<svg width="64" height="60" viewBox="0 0 64 60" fill="none" xmlns="http://www.w3.org/2000/svg">
<path d="M19 47.1667H36.8C37.7633 47.1667 38.5708 46.8951 39.2225 46.3521C39.8742 45.809 40.2 45.1361 40.2 44.3333V39.8333L48.4 43.4167V30.6667L40.2 34.25V29.75C40.2 28.9472 39.8742 28.2743 39.2225 27.7313C38.5708 27.1882 37.7633 26.9167 36.8 26.9167H19C18.065 26.9167 17.2812 27.1882 16.6487 27.7313C16.0162 28.2743 15.7 28.9472 15.7 29.75V44.3333C15.7 45.1361 16.0162 45.809 16.6487 46.3521C17.2812 46.8951 18.065 47.1667 19 47.1667ZM0 60L0 20L32 0L64 20V60H0ZM6 55H58V22.1667L32 6.41667L6 22.1667V55Z" fill="white"/>
</svg>
