<svg width="65" height="60" viewBox="0 0 65 60" fill="none" xmlns="http://www.w3.org/2000/svg">
<path d="M0 51L0 46.5H8.125V23.7C8.125 19.5 9.80078 15.7375 13.1523 12.4125C16.5039 9.0875 20.9219 7 26.4062 6.15V4.5C26.4062 3.25 26.9987 2.1875 28.1836 1.3125C29.3685 0.4375 30.8073 0 32.5 0C34.1927 0 35.6315 0.4375 36.8164 1.3125C38.0013 2.1875 38.5938 3.25 38.5938 4.5V6.15C44.0781 7 48.4961 9.0875 51.8477 12.4125C55.1992 15.7375 56.875 19.5 56.875 23.7V46.5H65V51H0ZM32.5 60C30.2656 60 28.3529 59.4125 26.7617 58.2375C25.1706 57.0625 24.375 55.65 24.375 54H40.625C40.625 55.65 39.8294 57.0625 38.2383 58.2375C36.6471 59.4125 34.7344 60 32.5 60ZM14.2188 46.5H50.7812V23.7C50.7812 19.95 49.0039 16.7625 45.4492 14.1375C41.8945 11.5125 37.5781 10.2 32.5 10.2C27.4219 10.2 23.1055 11.5125 19.5508 14.1375C15.9961 16.7625 14.2188 19.95 14.2188 23.7V46.5Z" fill="white"/>
</svg>
