<svg width="59" height="59" viewBox="0 0 59 59" fill="none" xmlns="http://www.w3.org/2000/svg">
<path d="M22.715 59L21.24 49.7075C20.3058 49.3633 19.3225 48.8962 18.29 48.3062C17.2575 47.7162 16.3479 47.1017 15.5612 46.4625L6.85875 50.445L0 38.35L7.965 32.5238C7.86667 32.0812 7.80521 31.5773 7.78062 31.0119C7.75604 30.4465 7.74375 29.9425 7.74375 29.5C7.74375 29.0575 7.75604 28.5535 7.78062 27.9881C7.80521 27.4227 7.86667 26.9187 7.965 26.4762L0 20.65L6.85875 8.555L15.5612 12.5375C16.3479 11.8983 17.2575 11.2837 18.29 10.6937C19.3225 10.1037 20.3058 9.66125 21.24 9.36625L22.715 0H36.285L37.76 9.2925C38.6942 9.63667 39.6898 10.0915 40.7469 10.6569C41.804 11.2223 42.7012 11.8492 43.4387 12.5375L52.1412 8.555L59 20.65L51.035 26.3287C51.1333 26.8204 51.1948 27.349 51.2194 27.9144C51.244 28.4798 51.2562 29.0083 51.2562 29.5C51.2562 29.9917 51.244 30.5079 51.2194 31.0487C51.1948 31.5896 51.1333 32.1058 51.035 32.5975L59 38.35L52.1412 50.445L43.4387 46.4625C42.6521 47.1017 41.7548 47.7285 40.7469 48.3431C39.739 48.9577 38.7433 49.4125 37.76 49.7075L36.285 59H22.715ZM26.255 54.575H32.745L33.7775 46.315C35.4 45.9217 36.9365 45.3071 38.3869 44.4712C39.8373 43.6354 41.1525 42.6275 42.3325 41.4475L50.15 44.84L53.1 39.53L46.1675 34.4412C46.3642 33.6054 46.524 32.7819 46.6469 31.9706C46.7698 31.1594 46.8312 30.3358 46.8312 29.5C46.8312 28.6642 46.7821 27.8406 46.6837 27.0294C46.5854 26.2181 46.4133 25.3946 46.1675 24.5587L53.1 19.47L50.15 14.16L42.3325 17.5525C41.2017 16.2742 39.9233 15.2048 38.4975 14.3444C37.0717 13.484 35.4983 12.9308 33.7775 12.685L32.745 4.425H26.255L25.2225 12.685C23.5508 13.0292 21.9898 13.6192 20.5394 14.455C19.089 15.2908 17.7983 16.3233 16.6675 17.5525L8.85 14.16L5.9 19.47L12.8325 24.5587C12.6358 25.3946 12.476 26.2181 12.3531 27.0294C12.2302 27.8406 12.1687 28.6642 12.1687 29.5C12.1687 30.3358 12.2302 31.1594 12.3531 31.9706C12.476 32.7819 12.6358 33.6054 12.8325 34.4412L5.9 39.53L8.85 44.84L16.6675 41.4475C17.8475 42.6275 19.1627 43.6354 20.6131 44.4712C22.0635 45.3071 23.6 45.9217 25.2225 46.315L26.255 54.575ZM29.5 39.0875C32.155 39.0875 34.4167 38.1533 36.285 36.285C38.1533 34.4167 39.0875 32.155 39.0875 29.5C39.0875 26.845 38.1533 24.5833 36.285 22.715C34.4167 20.8467 32.155 19.9125 29.5 19.9125C26.845 19.9125 24.5833 20.8467 22.715 22.715C20.8467 24.5833 19.9125 26.845 19.9125 29.5C19.9125 32.155 20.8467 34.4167 22.715 36.285C24.5833 38.1533 26.845 39.0875 29.5 39.0875Z" fill="white"/>
</svg>
