<svg width="32" height="62" viewBox="0 0 32 62" fill="none" xmlns="http://www.w3.org/2000/svg">
<path d="M16 62C11.5733 62 7.8 60.4888 4.68 57.4663C1.56 54.4438 0 50.7883 0 46.5C0 43.865 0.613333 41.385 1.84 39.06C3.06667 36.735 4.88 35.0042 7.28 33.8675V8.4475C7.28 6.10096 8.12779 4.10641 9.82336 2.46388C11.5189 0.821293 13.5778 0 16 0C18.4222 0 20.4811 0.821293 22.1766 2.46388C23.8722 4.10641 24.72 6.10096 24.72 8.4475V33.8675C27.12 35.0042 28.9333 36.735 30.16 39.06C31.3867 41.385 32 43.865 32 46.5C32 50.7883 30.44 54.4438 27.32 57.4663C24.2 60.4888 20.4267 62 16 62ZM12.08 28.2875H19.92V24.18H16V21.1575H19.92V14.415H16V11.4312H19.92V8.4475C19.92 7.37154 19.5434 6.46965 18.7902 5.74182C18.0369 5.01394 17.1036 4.65 15.9902 4.65C14.8767 4.65 13.9467 5.01394 13.2 5.74182C12.4533 6.46965 12.08 7.37154 12.08 8.4475V28.2875Z" fill="white"/>
</svg>
