<svg width="64" height="61" viewBox="0 0 64 61" fill="none" xmlns="http://www.w3.org/2000/svg">
<path d="M55.3455 46.0925L51.7091 42.0634C54.0364 39.3236 55.8182 36.5167 57.0545 33.6427C58.2909 30.7686 58.9091 27.2365 58.9091 23.0462C58.9091 18.856 58.2909 15.3239 57.0545 12.4498C55.8182 9.57574 54.0364 6.76882 51.7091 4.02906L55.3455 0C58.0606 3.11581 60.1818 6.51365 61.7091 10.1935C63.2364 13.8734 64 18.1576 64 23.0462C64 27.9348 63.2364 32.2191 61.7091 35.8989C60.1818 39.5788 58.0606 42.9767 55.3455 46.0925ZM45.2364 34.6499L41.6 30.6209C42.4727 29.5465 43.1515 28.4049 43.6364 27.1962C44.1212 25.9874 44.3636 24.6041 44.3636 23.0462C44.3636 21.4883 44.1212 20.105 43.6364 18.8963C43.1515 17.6876 42.4727 16.546 41.6 15.4716L45.2364 11.4425C46.497 12.9467 47.5151 14.7061 48.2909 16.7206C49.0667 18.7351 49.4545 20.8437 49.4545 23.0462C49.4545 25.2488 49.0667 27.3573 48.2909 29.3719C47.5151 31.3864 46.497 33.1458 45.2364 34.6499ZM23.2727 35.1334C20.0727 35.1334 17.4545 34.0053 15.4182 31.749C13.3818 29.4927 12.3636 26.5918 12.3636 23.0462C12.3636 19.5007 13.3818 16.5997 15.4182 14.3435C17.4545 12.0872 20.0727 10.959 23.2727 10.959C26.4727 10.959 29.0909 12.0872 31.1273 14.3435C33.1636 16.5997 34.1818 19.5007 34.1818 23.0462C34.1818 26.5918 33.1636 29.4927 31.1273 31.749C29.0909 34.0053 26.4727 35.1334 23.2727 35.1334ZM0 61L0 53.4254C0 51.384 0.460606 49.6515 1.38182 48.2279C2.30303 46.8043 3.49091 45.6896 4.94545 44.8838C7.41818 43.487 10.3394 42.332 13.7091 41.4188C17.0788 40.5055 20.2667 40.0489 23.2727 40.0489C26.2788 40.0489 29.4545 40.5055 32.8 41.4188C36.1455 42.332 39.0545 43.487 41.5273 44.8838C42.9818 45.6896 44.1818 46.8043 45.1273 48.2279C46.0727 49.6515 46.5455 51.384 46.5455 53.4254V61H0ZM4.36364 56.1651H42.1818V53.4254C42.1818 52.5658 41.9758 51.7734 41.5636 51.0482C41.1515 50.323 40.5576 49.7186 39.7818 49.2351C37.4545 47.7847 34.8121 46.6968 31.8545 45.9716C28.897 45.2464 26.0364 44.8838 23.2727 44.8838C20.5091 44.8838 17.6364 45.2732 14.6545 46.0522C11.6727 46.8311 9.01818 47.8921 6.69091 49.2351C6.01212 49.6112 5.45455 50.1887 5.01818 50.9676C4.58182 51.7466 4.36364 52.5658 4.36364 53.4254V56.1651ZM23.2727 30.2985C25.1636 30.2985 26.7273 29.6136 27.9636 28.2437C29.2 26.8738 29.8182 25.1413 29.8182 23.0462C29.8182 20.9511 29.2 19.2186 27.9636 17.8487C26.7273 16.4789 25.1636 15.7939 23.2727 15.7939C21.3818 15.7939 19.8182 16.4789 18.5818 17.8487C17.3455 19.2186 16.7273 20.9511 16.7273 23.0462C16.7273 25.1413 17.3455 26.8738 18.5818 28.2437C19.8182 29.6136 21.3818 30.2985 23.2727 30.2985Z" fill="white"/>
</svg>
