<svg width="57" height="56" viewBox="0 0 57 56" fill="none" xmlns="http://www.w3.org/2000/svg">
<path d="M28.5 56C24.51 56 20.7812 55.265 17.3137 53.795C13.8462 52.325 10.83 50.33 8.265 47.81C5.7 45.29 3.68125 42.315 2.20875 38.885C0.73625 35.455 0 31.78 0 27.86C0 23.94 0.73625 20.2883 2.20875 16.905C3.68125 13.5217 5.7 10.57 8.265 8.05C10.83 5.53 13.8462 3.55833 17.3137 2.135C20.7812 0.711667 24.51 0 28.5 0C32.49 0 36.2188 0.711667 39.6862 2.135C43.1538 3.55833 46.17 5.53 48.735 8.05C51.3 10.57 53.3187 13.5217 54.7912 16.905C56.2637 20.2883 57 23.94 57 27.86C57 31.78 56.2637 35.455 54.7912 38.885C53.3187 42.315 51.3 45.29 48.735 47.81C46.17 50.33 43.1538 52.325 39.6862 53.795C36.2188 55.265 32.49 56 28.5 56ZM28.5 51.94C30.1625 50.26 31.5519 48.335 32.6681 46.165C33.7844 43.995 34.6987 41.4167 35.4113 38.43H21.66C22.325 41.23 23.2156 43.75 24.3319 45.99C25.4481 48.23 26.8375 50.2133 28.5 51.94ZM22.4438 51.1C21.2563 49.3267 20.235 47.4133 19.38 45.36C18.525 43.3067 17.8125 40.9967 17.2425 38.43H6.555C8.36 41.7433 10.45 44.345 12.825 46.235C15.2 48.125 18.4062 49.7467 22.4438 51.1ZM34.6275 51.03C38.0475 49.9567 41.1231 48.3467 43.8544 46.2C46.5856 44.0533 48.7825 41.4633 50.445 38.43H39.8288C39.2113 40.95 38.4869 43.2367 37.6556 45.29C36.8244 47.3433 35.815 49.2567 34.6275 51.03ZM5.13 34.23H16.4587C16.3162 32.97 16.2331 31.8383 16.2094 30.835C16.1856 29.8317 16.1737 28.84 16.1737 27.86C16.1737 26.6933 16.1975 25.655 16.245 24.745C16.2925 23.835 16.3875 22.82 16.53 21.7H5.13C4.7975 22.82 4.57188 23.8233 4.45312 24.71C4.33437 25.5967 4.275 26.6467 4.275 27.86C4.275 29.0733 4.33437 30.1583 4.45312 31.115C4.57188 32.0717 4.7975 33.11 5.13 34.23ZM20.8762 34.23H36.195C36.385 32.7833 36.5037 31.605 36.5513 30.695C36.5988 29.785 36.6225 28.84 36.6225 27.86C36.6225 26.9267 36.5988 26.0283 36.5513 25.165C36.5037 24.3017 36.385 23.1467 36.195 21.7H20.8762C20.6863 23.1467 20.5675 24.3017 20.52 25.165C20.4725 26.0283 20.4487 26.9267 20.4487 27.86C20.4487 28.84 20.4725 29.785 20.52 30.695C20.5675 31.605 20.6863 32.7833 20.8762 34.23ZM40.47 34.23H51.87C52.2025 33.11 52.4281 32.0717 52.5469 31.115C52.6656 30.1583 52.725 29.0733 52.725 27.86C52.725 26.6467 52.6656 25.5967 52.5469 24.71C52.4281 23.8233 52.2025 22.82 51.87 21.7H40.5412C40.6838 23.3333 40.7788 24.5817 40.8262 25.445C40.8737 26.3083 40.8975 27.1133 40.8975 27.86C40.8975 28.8867 40.8619 29.855 40.7906 30.765C40.7194 31.675 40.6125 32.83 40.47 34.23ZM39.7575 17.5H50.445C48.8775 14.28 46.7281 11.5967 43.9969 9.45C41.2656 7.30333 38.1187 5.78667 34.5562 4.9C35.7437 6.62667 36.7531 8.49333 37.5844 10.5C38.4156 12.5067 39.14 14.84 39.7575 17.5ZM21.66 17.5H35.4825C34.96 15.0267 34.0812 12.635 32.8462 10.325C31.6112 8.015 30.1625 5.97333 28.5 4.2C26.98 5.46 25.6975 7.11667 24.6525 9.17C23.6075 11.2233 22.61 14 21.66 17.5ZM6.555 17.5H17.3137C17.8363 14.98 18.5012 12.7283 19.3088 10.745C20.1162 8.76167 21.1375 6.83667 22.3725 4.97C18.81 5.85667 15.6987 7.35 13.0387 9.45C10.3787 11.55 8.2175 14.2333 6.555 17.5Z" fill="white"/>
</svg>
